<?xml version="1.0" ?><!DOCTYPE svg  PUBLIC '-//W3C//DTD SVG 1.1//EN'  'http://www.w3.org/Graphics/SVG/1.1/DTD/svg11.dtd'><svg enable-background="new 0 0 512 512" id="Layer_1" version="1.1" viewBox="0 0 512 512" xml:space="preserve" xmlns="http://www.w3.org/2000/svg" xmlns:xlink="http://www.w3.org/1999/xlink"><g><path d="M151.7,447.4c-31.1,0.1-62.3,0.2-93.4,0.1c-8.4,0-13.8-7.4-12.4-16c5.2-33.1,10.1-66.2,15.3-99.2   c4.7-29.7,9.8-59.4,14.5-89.2c3.4-21.5,6.4-43,9.8-64.5c5-31.7,10.2-63.4,15.3-95.1c2.9-18.2,5.6-36.4,8.4-54.6   c1.8-11.9,11.2-20,23.4-20c52.6,0,105.3-0.4,157.9,0.2c28.7,0.3,57.2,3.9,83.3,17.2C400.9,39.9,417.4,62,422.8,92   c2.5,14,1.6,28-1.1,42c-11.2-5.7-23-9.4-35.2-11.8c-15.2-3-30.8-3.8-46.3-4c-39.1-0.4-78.3-0.3-117.4,0c-8.3,0.1-15.7,3.5-19,12   c-1.5,3.9-2,8.3-2.6,12.6c-2.7,16.4-5.3,32.9-7.9,49.4c-2,12.7-4.2,25.4-6.1,38.1c-2.4,16.1-4.5,32.3-7.6,48.3   c-1,5.3-3.2,10.7-1.6,16.4c-1.2,3.6-2.3,7.2-2.9,11c-2.8,18.5-5.7,37-8.6,55.5c-3.5,22.4-6.8,44.9-10.6,67.3   C154.7,435,155.1,441.6,151.7,447.4z" fill="#012D8A"/><path d="M151.7,447.4c3.4-5.7,3-12.4,4-18.6c3.8-22.4,7.1-44.8,10.6-67.3c2.9-18.5,5.8-37,8.6-55.5   c0.6-3.8,1.7-7.4,2.9-11c5.4-8.4,12.9-12.1,23.1-12c25.5,0,51,1.3,76.4-1.9c22.7-2.8,44.4-8.6,64.6-19.4   c31.1-16.7,52.3-42.2,65.6-74.5c6.3-15.4,11.3-31.3,13.4-47.9c0.2-0.4,0.3-0.8,0.5-1.1c0.2-1,0.4-2,0.6-3   c23.8,12.6,36.5,32.8,39.9,59.2c2.8,21.7-0.5,42.8-5.9,63.8c-4.3,16.7-10.9,32.4-20.3,46.8c-15.3,23.6-36.6,40-63.1,49.4   c-13.8,4.9-28,7.7-42.5,9.4c-12.1,1.4-24.2,1.4-36.3,1.5c-12.2,0-20,6.7-21.7,18.7c-3.7,25.3-7.4,50.6-11.8,75.9   c-1.5,8.6-2.7,17.3-4.2,25.8c-1.9,10.4-9.3,16.6-19.8,16.6c-25.5,0-51,0-76.5,0c-9.7,0-14.4-5.6-12.8-15   c1.9-11.6,3.8-23.1,5.7-34.7C153,450.7,153.5,448.8,151.7,447.4z" fill="#019AE0"/><path d="M422.1,135c-0.2,1-0.4,2-0.6,3c-0.2,0.4-0.3,0.8-0.5,1.1c-2.1,16.6-7.1,32.5-13.4,47.9   c-13.3,32.3-34.5,57.8-65.6,74.5c-20.2,10.8-42,16.6-64.6,19.4c-25.4,3.1-50.9,1.9-76.4,1.9c-10.2,0-17.7,3.6-23.1,12   c-1.6-5.6,0.6-11.1,1.6-16.4c3-16,5.2-32.2,7.6-48.3c1.9-12.7,4.1-25.4,6.1-38.1c2.6-16.5,5.2-32.9,7.9-49.4   c0.7-4.2,1.1-8.6,2.6-12.6c3.3-8.5,10.7-12,19-12c39.1-0.3,78.3-0.4,117.4,0c15.5,0.2,31,1,46.3,4c12.2,2.4,24.1,6.1,35.2,11.8   C421.8,134.4,422,134.7,422.1,135z" fill="#001F6B"/><path d="M421.1,139.2c0.2-0.4,0.3-0.8,0.5-1.1C421.4,138.4,421.3,138.8,421.1,139.2z" fill="#012D8A"/></g></svg>