<?xml version="1.0" ?><!DOCTYPE svg  PUBLIC '-//W3C//DTD SVG 1.0//EN'  'http://www.w3.org/TR/2001/REC-SVG-20010904/DTD/svg10.dtd'><svg enable-background="new 0 0 24 24" id="Layer_1" version="1.0" viewBox="0 0 24 24" xml:space="preserve" xmlns="http://www.w3.org/2000/svg" xmlns:xlink="http://www.w3.org/1999/xlink"><g><path d="M11.2,4.3c0.3,0.4,0.7,0.6,1.1,0.8C12.1,5.6,12,6,11.9,6.4c-0.1,0-0.3,0-0.4,0l-0.1,0c-0.3,0-0.7-0.1-1-0.1   c-0.1-0.2-0.3-0.5-0.4-0.7C10,5.5,9.9,5.4,9.9,5.4C10.3,5.2,10.8,4.8,11.2,4.3 M11.2,2C11.2,2,11.2,2,11.2,2c-0.5,0-1,0.1-1.5,0.9   c-0.4,0.7-1,0.7-1.9,0.7c-0.8,0-1,0.6-0.6,1.2c0.2,0.3,1.5,2.5,1.8,3c0.3,0.4,1.5,0.7,2.4,0.7c0.1,0,0.1,0,0.2,0   c0.9,0,2.3-0.4,2.2-1.1c-0.1-1.3,1.2-3,1.4-3.2c0.3-0.4,0.2-1.3-0.6-1.3c-0.2,0-0.4,0-0.6,0.1c-0.2,0.1-0.5,0.2-0.8,0.2   c-0.2,0-0.4-0.1-0.5-0.3C12.1,2.1,11.6,2,11.2,2L11.2,2z"/></g><g><path d="M9,7.8c0.3,0.5,1.7,0.7,2.6,0.7c0.9,0,2.3-0.4,2.2-1.1c-0.1-1.3,1.2-3,1.4-3.2c-0.4,0.2-0.7,0.5-1.1,0.4   C13.9,4.8,13.4,6,12.4,6c-0.7,0-0.8-1-1.3-1c-0.5,0-0.6,0.7-1,0.8C9.2,6,8.5,5.1,8,4.5c-0.2,0-0.6-0.3-0.8,0.4   C7.4,5.1,8.7,7.3,9,7.8z"/></g><path d="M13.6,8.8c-0.7,0.3-1.5,0.5-2,0.5l-0.2,0c-0.2,0-1.1,0-1.9-0.3C5.2,10.3,2,14.7,2,17.8C2,21.5,6.5,22,12,22s10-0.5,10-4.2  C22,14.5,18.4,9.8,13.6,8.8z M11.6,14.5c0.1,0.1,0.3,0.3,0.6,0.5c0.6,0.2,1.1,0.5,1.4,0.8c0.3,0.3,0.5,0.8,0.5,1.4  c0,0.5-0.2,1-0.5,1.3c-0.3,0.3-0.7,0.5-1.2,0.6V20h-0.7v-0.9c-0.5-0.1-1-0.3-1.3-0.6c-0.3-0.3-0.5-0.9-0.5-1.5l0,0h1.3  c0,0.4,0.1,0.7,0.2,0.9s0.4,0.3,0.6,0.3c0.2,0,0.4-0.1,0.5-0.2c0.1-0.2,0.2-0.4,0.2-0.6c0-0.3-0.1-0.5-0.2-0.6  c-0.1-0.2-0.3-0.3-0.6-0.5c-0.6-0.2-1.1-0.5-1.4-0.8s-0.5-0.8-0.5-1.3c0-0.5,0.2-1,0.5-1.3c0.3-0.3,0.7-0.5,1.2-0.6v-1h0.7v1  c0.5,0.1,0.9,0.3,1.2,0.7s0.4,0.8,0.4,1.4h-1.3c0-0.3-0.1-0.6-0.2-0.8c-0.1-0.2-0.3-0.3-0.5-0.3c-0.2,0-0.4,0.1-0.5,0.2  c-0.1,0.2-0.1,0.4-0.1,0.6C11.5,14.2,11.5,14.4,11.6,14.5z"/></svg>