<?xml version="1.0" ?><!DOCTYPE svg  PUBLIC '-//W3C//DTD SVG 1.1//EN'  'http://www.w3.org/Graphics/SVG/1.1/DTD/svg11.dtd'><svg enable-background="new 0 0 512 512" id="Layer_1" version="1.1" viewBox="0 0 512 512" xml:space="preserve" xmlns="http://www.w3.org/2000/svg" xmlns:xlink="http://www.w3.org/1999/xlink"><g><path d="M370.9,206.9c0,16.7,0.6,33.3-0.2,50c-0.8,19,5,35.3,17,49.7c1.4,1.7,2.7,3.4,3.9,5.2   c4.3,6.5,3.5,11-2.4,16c-12.6,10.6-25.1,21.3-37.7,31.9c-7.5,6.3-12.2,6.2-19.8,0c-10.2-8.3-18.2-18.5-25.3-29.4   c-1.7-2.6-2.6-2.5-4.7-0.5c-12.6,12.3-25.9,23.7-42.8,29.4c-26.1,8.9-52.6,10.3-78.8,1c-25.2-9-40.3-27.6-45.9-53.5   c-6.2-28.9-3-56.4,14.8-80.9c13.5-18.5,32.2-29.4,53.7-36.1c22.2-6.8,45.1-9.4,68.1-11.7c6.5-0.7,12.9-1.3,19.4-1.9   c1.6-0.1,3-0.3,2.9-2.4c-0.2-10.6,0.9-21.4-1.6-31.8c-3.2-13.3-11.9-21.1-25.2-24c-9.5-2.1-18.9-1.5-28.1,1.6   c-14,4.8-22.7,14.5-26.2,28.9c-1.9,7.9-5.6,10.7-13.3,9.9c-16.4-1.7-32.8-3.4-49.1-5.1c-6.7-0.7-10.2-5.8-8.8-12.3   c8.5-41.5,35.7-64.8,74.9-75.5c30.1-8.2,60.6-8.7,90.8-0.2c24.3,6.8,44.7,18.8,56.1,42.6c6.5,13.5,8,28.1,8.2,42.7   C371,169.2,370.8,188.1,370.9,206.9C370.8,206.9,370.9,206.9,370.9,206.9z M293.1,238.1c0-5-0.2-10,0.1-15c0.2-3.1-0.9-4.2-4-3.9   c-7.6,0.7-15.3,0.8-22.9,1.8c-13.3,1.7-26.3,5-37.1,13.4c-15.7,12.3-19,29.1-16.4,48c3.1,22.2,22.9,34.5,44.1,27.1   c14.4-5,23.2-15.6,29.3-28.9C292.6,267.1,293.1,252.6,293.1,238.1z" fill="#050606"/><path d="M256.1,463.8c-76.3-0.5-144.8-20.1-206.7-61.4c-12.6-8.4-24.6-17.6-36-27.7c-1-0.9-2-1.8-2.8-2.9   c-1.1-1.5-1.9-3.3-0.6-5.1c1.3-2,3.5-2.2,5.4-1.3c4.4,2.1,8.6,4.4,12.9,6.6c39.4,20.8,80.9,35.8,124.4,45.3   c39.4,8.6,79.2,12.6,119.6,11.5c57.7-1.6,113.3-13.2,166.8-34.7c2.6-1.1,5.3-2.2,8-2.8c3.8-0.7,7.6-0.2,9.3,3.9   c1.6,3.8-0.5,6.8-3.3,9.2c-2,1.7-4.3,3.1-6.6,4.6c-34.5,22.4-72.3,36.8-112.3,45.7C307.8,460.7,281,463.6,256.1,463.8z" fill="#F6A61F"/><path d="M448.6,374.7c-11.5-0.1-22.9,1.4-34.3,2.6c-2.2,0.2-4.7,0.8-5.7-1.6c-1.2-2.7,1.1-4.3,3-5.6   c14.2-9.4,30.1-13.1,46.8-14c11.5-0.7,22.9-0.2,34.1,3.2c5.1,1.5,7.6,4.5,7.5,9.7c-0.6,27.8-9.9,52-30,71.7   c-0.7,0.7-1.5,1.3-2.3,1.9c-1.8,1.3-4,2.5-5.9,0.9c-1.8-1.5-0.8-3.7,0-5.5c5.9-14.7,11.9-29.3,14.8-45c0.4-2,0.5-4,0.6-5.9   c0.1-6.5-2.2-9.3-8.6-10.9C461.9,374.4,455.2,374.7,448.6,374.7z" fill="#F6A61F"/></g></svg>