<svg xmlns="http://www.w3.org/2000/svg" width="1200" height="1200" preserveAspectRatio="xMidYMid">
  <path fill="#919de1" fill-rule="evenodd" d="M600 587.503H382.498v-217.5h217.5v217.5zm-290.002 145v72.499H672.5v-72.498H309.998zm0-435v362.499H672.5v-362.5H309.998zm435.001 435v72.499H1035v-72.498H745zm0-145v72.499H1035v-72.5H745zm0-145.001v72.5H1035v-72.5H745zm0-145v72.5H1035v-72.5H745zM154.238 866.74c-7.176 7.177-15.673 10.762-25.488 10.762-9.824 0-18.318-3.585-25.488-10.762-7.179-7.17-10.761-15.665-10.761-25.489v-543.75H165v543.752c0 9.822-3.592 18.318-10.762 25.487zm942.5 0c-7.18 7.177-15.674 10.762-25.488 10.762H231.269c4.152-11.7 6.231-23.788 6.231-36.252V225.004h870v616.249c0 9.825-3.594 18.32-10.762 25.49zM165 152.504v72.5H20V841.25c0 30.213 10.567 55.887 31.72 77.03C72.862 939.435 98.536 950 128.75 950h942.5c30.204 0 55.879-10.567 77.03-31.718 21.144-21.144 31.72-46.817 31.72-77.032V152.5H165z"/>
</svg>
