<svg xmlns="http://www.w3.org/2000/svg" viewBox="0 0 1200 1200">
  <path fill="#919de1" d="M382.5 587.5V370H600v217.5zM310 805h362.5v-72.5H310zm0-145h362.5V297.5H310zm435 145h290v-72.5H745zm0-145h290v-72.5H745zm0-145h290v-72.5H745Zm0-145h290v-72.5H745ZM128.7 877.5c-21-1.6-36-17.1-36.2-36.2V297.5H165v543.8c-1.6 21-17.1 36-36.3 36.2zm942.5 0h-840c4.2-11.7 6.3-23.8 6.3-36.3V225h870v616.3c-1.8 20.5-15.8 36-36.3 36.2zM165 225H20v616.3c3 62.6 53 108 108.8 108.7h942.5c62.6-3 108-53 108.7-108.8V152.5H165z"/>
</svg>