<svg xmlns="http://www.w3.org/2000/svg" viewBox="0 0 32 32" fill="#7d84df"><path d="M14 16v-2h14v2zM28 6H10v2h18zM6 12h2V2h22v28H18v2h14V0H6zm4 0h18v-2H10zM3.86 25.98c.02-.16.01-.12 0 0M16 24a8 8 0 1 1-16 0 8 8 0 0 1 16 0m-6.65-1.84-.38-.57q-.18-.18-.34 0l-.08.13q-.13.15-.3.04l-.33-.3q-.16-.1-.3.04l-.39.56q-.1.3.2.31l.3-.04c.1-.02.2.05.22.16l.08.38a.2.2 0 0 0 .12.15l.6.23.08.01 1.36-.02q.32-.09.12-.36l-.91-.67zM14 24.09c-.65-.36-1.38-.63-1.38-.63l-2.08.58q-.24.14-.06.35l.46.36q.15.15.01.3l-.86 1.12-.4.55c-.12.37-1.25 1.03-1.25 1.03a.2.2 0 0 1-.26-.07l-.5-.8-.19-1.12a.2.2 0 0 0-.07-.12l-1.38-1.03a.2.2 0 0 1-.08-.13l-.1-.93q-.01-.08.02-.13l.4-.7a.2.2 0 0 0 .03-.13l-.11-.73q-.01-.19.17-.23l.22-.03q.2-.04.17-.25l-.05-.17a.2.2 0 0 1 .08-.21l1.08-.76c.16-.1 1.5-.65 1.25-1.07l-.47-.11c.08.03-.38.02-.38.02-.1.09-1.19-.4-.76-.73l.28-.14q.09-.06 0-.16a6 6 0 0 0-3.25 1.1l.09.56c-.54.42.28.75-.67 1.12-.7.28-.86.61-1.13 1.36-.4 1.09-.71 1.92.5 2.37a.2.2 0 0 1 .09.11l.44 1.33c-.03.2-.09.6-.1.78l-.9.29A5.99 5.99 0 0 0 14 24.09"/></svg>