<svg xmlns="http://www.w3.org/2000/svg" x="0px" y="0px" width="96px" height="96px" viewBox="0 0 32 32"><path  fill="#7D84DF" d="M14,16v-2h13.999v2H14z M27.999,6H10.001v2h17.998V6z M6,12h2V2h22v28H18v2h14V0H6V12z M10,12h17.999v-2H10 V12z M3.855,25.976L3.855,25.976C3.88,25.822,3.873,25.858,3.855,25.976z M16,24c0,4.418-3.582,8-8,8s-8-3.582-8-8 c0-4.418,3.582-8,8-8S16,19.582,16,24z M9.352,22.157L8.965,21.59c-0.111-0.117-0.222-0.116-0.332,0.002L8.55,21.717 c-0.088,0.104-0.188,0.117-0.299,0.039L7.92,21.463c-0.11-0.077-0.209-0.065-0.298,0.036l-0.387,0.564 c-0.071,0.189-0.005,0.293,0.196,0.311l0.296-0.047c0.107-0.017,0.208,0.055,0.228,0.161l0.071,0.385 c0.013,0.069,0.061,0.126,0.127,0.151l0.605,0.227c0.023,0.009,0.048,0.013,0.073,0.013l1.361-0.02 c0.211-0.065,0.25-0.185,0.116-0.36l-0.911-0.678C9.38,22.192,9.364,22.175,9.352,22.157z M13.991,24.091 c-0.655-0.358-1.384-0.627-1.384-0.627l-2.078,0.577c-0.159,0.091-0.18,0.207-0.061,0.348l0.461,0.361 c0.097,0.096,0.102,0.197,0.015,0.302l-0.864,1.12c-0.031,0.03-0.397,0.55-0.397,0.55c-0.12,0.372-1.254,1.028-1.254,1.028 c-0.092,0.05-0.207,0.02-0.264-0.069c0,0-0.485-0.769-0.49-0.793l-0.191-1.128c-0.01-0.047-0.037-0.09-0.076-0.118l-1.381-1.028 c-0.044-0.033-0.073-0.083-0.079-0.138l-0.107-0.931c-0.005-0.043,0.004-0.087,0.026-0.125l0.412-0.696 c0.024-0.04,0.033-0.087,0.025-0.134L6.187,21.86c-0.008-0.126,0.05-0.203,0.173-0.23l0.22-0.027 c0.132-0.032,0.188-0.115,0.169-0.249l-0.045-0.171c-0.021-0.081,0.01-0.167,0.079-0.215l1.08-0.756 c0.153-0.108,1.497-0.647,1.243-1.069l-0.471-0.114c0.09,0.029-0.373,0.022-0.373,0.022c-0.111,0.086-1.19-0.394-0.764-0.727 l0.286-0.146c0.071-0.036,0.043-0.094-0.012-0.156c-1.207,0.046-2.32,0.441-3.243,1.1c0.034,0.215,0.086,0.532,0.091,0.555 c-0.536,0.42,0.279,0.752-0.672,1.128c-0.702,0.277-0.857,0.608-1.127,1.354c-0.395,1.09-0.714,1.919,0.499,2.376 c0.043,0.024,0.075,0.064,0.09,0.11l0.443,1.33c-0.029,0.189-0.09,0.593-0.105,0.774l-0.894,0.289C3.902,28.802,5.805,30,8,30 C11.277,30,13.941,27.357,13.991,24.091z"></path></svg>