<svg xmlns="http://www.w3.org/2000/svg" x="0px" y="0px" width="96px" height="96px" viewBox="0 0 32 32"><path  fill="#7D84DF" d="M6.734,26.264l-1.734-1l3-5.197l1.734,1L6.734,26.264z M7.465,28.997c-0.553,0.957-1.777,1.283-2.73,0.73 l-1.734-1c-0.957-0.551-1.281-1.775-0.731-2.73l2-3.465l-1.732-1l-2,3.465C-0.566,26.911,0.086,29.356,2,30.461l1.734,1 c1.912,1.103,4.355,0.447,5.461-1.465l2-3.465l-1.731-1L7.465,28.997z M14.596,18.301c-0.275-1.023-0.945-1.898-1.863-2.428 l-1.732-1c-0.918-0.533-2.01-0.676-3.035-0.4c-1.023,0.273-1.898,0.945-2.428,1.863l-2,3.465l1.732,1l2-3.465 c0.266-0.459,0.699-0.793,1.215-0.932c0.512-0.139,1.057-0.066,1.516,0.199l1.732,1.002c0.957,0.553,1.283,1.773,0.732,2.731 l-2,3.465l1.731,0.998l2-3.463C14.727,20.418,14.871,19.327,14.596,18.301z M28,13.997H16v2h12V13.997z M6,11.997h2v-10h22v28H14v2 h18v-32H6V11.997z M28,5.997H10v2h18V5.997z M10,11.997h18v-2H10V11.997z"></path></svg>