<svg xmlns="http://www.w3.org/2000/svg" viewBox="0 0 16 16">
  <style>
    .st0{fill:#FAFAFA}
    .st1{fill:#FFFFFF}
    .st2{fill:#7D83DE}
    .st3{fill:#999999}
    .st4{fill:#E84F35}
  </style>
  <rect class="st1" width="16" height="16"/>
  <path class="st2" d="M0,0v16h16V0H0z M15,15H1V1h14V15z"/>
  <rect class="st4" x="5.5" y="6.5" width="1" height="1"/>
  <path class="st2" d="M3.5,5.5v5c0,0.6,0.4,1,1,1h7c0.6,0,1-0.4,1-1v-5c0-0.6-0.4-1-1-1h-7C3.9,4.5,3.5,4.9,3.5,5.5z M11.5,10.5h-7v-5h7V10.5z"/>
  <rect class="st2" x="7.5" y="6.5" width="1" height="1"/>
  <rect class="st2" x="9.5" y="6.5" width="1" height="1"/>
  <rect class="st2" x="5.5" y="8.5" width="1" height="1"/>
  <rect class="st2" x="7.5" y="8.5" width="1" height="1"/>
  <rect class="st2" x="9.5" y="8.5" width="1" height="1"/>
  <path class="st2" d="M6.5,4.5h-1V3.7c0-0.1,0.1-0.2,0.2-0.2h0.6c0.1,0,0.2,0.1,0.2,0.2V4.5z"/>
  <path class="st2" d="M10.5,4.5h-1V3.7c0-0.1,0.1-0.2,0.2-0.2h0.6c0.1,0,0.2,0.1,0.2,0.2V4.5z"/>
</svg>
