<svg xmlns="http://www.w3.org/2000/svg" viewBox="0 0 16 16">
    <rect fill="#FFFFFF" width="16" height="16"/>
    <path fill="#7D83DE" d="M0,0v16h16V0H0z M15,15H1V1h14V15z"/>
    <path fill="#E84F35" d="M10,4.5H6C5.7,4.5,5.5,4.3,5.5,4v0c0-0.3,0.2-0.5,0.5-0.5h4c0.3,0,0.5,0.2,0.5,0.5v0C10.5,4.3,10.3,4.5,10,4.5z"/>
    <rect x="3" y="5.5" fill="#7D83DE" width="4" height="1"/>
    <rect x="9" y="5.5" fill="#7D83DE" width="4" height="1"/>
    <rect x="2.5" y="7.5" fill="#7D83DE" width="2" height="1"/>
    <rect x="5.5" y="7.5" fill="#7D83DE" width="2" height="1"/>
    <rect x="8.5" y="7.5" fill="#7D83DE" width="2" height="1"/>
    <rect x="11.5" y="7.5" fill="#7D83DE" width="2" height="1"/>
    <rect x="2.5" y="9.5" fill="#7D83DE" width="2" height="1"/>
    <rect x="5.5" y="9.5" fill="#7D83DE" width="2" height="1"/>
    <rect x="8.5" y="9.5" fill="#7D83DE" width="2" height="1"/>
    <rect x="11.5" y="9.5" fill="#7D83DE" width="2" height="1"/>
    <rect x="2.5" y="11.5" fill="#7D83DE" width="2" height="1"/>
    <rect x="5.5" y="11.5" fill="#7D83DE" width="2" height="1"/>
    <rect x="8.5" y="11.5" fill="#7D83DE" width="2" height="1"/>
    <rect x="11.5" y="11.5" fill="#7D83DE" width="2" height="1"/>
</svg>