<?xml version="1.0" encoding="utf-8"?>
<svg version="1.1" id="europa-icons"
	 xmlns="http://www.w3.org/2000/svg" xmlns:xlink="http://www.w3.org/1999/xlink" x="0px" y="0px" width="96px" height="96px"
	 viewBox="0 0 16 16" style="enable-background:new 0 0 16 16;" xml:space="preserve">
<style type="text/css">
	.st0{fill:#FFFFFF;}
	.st1{fill:#999999;}
	.st2{fill:#7D83DE;}
	.st3{fill:#E84F35;}
	.st4{fill:#FAFAFA;}
</style>
<g id="search-result">
	<rect id="white_00000120559590449659841610000012954727859899179418_" class="st0" width="16" height="16"/>
	<path id="lila_00000116195247343972504220000006491104826531938688_" class="st2" d="M0,0v16h16V0H0z M15,15H1V1h14V15z M7.5,6h-3
		c-0.6,0-1-0.4-1-1v0c0-0.6,0.4-1,1-1h3c0.6,0,1,0.4,1,1v0C8.5,5.6,8.1,6,7.5,6z M13.2,6.8C13,7,12.7,7,12.5,6.8l-1-1
		C11.3,5.9,11.1,6,10.9,6c-0.8,0-1.5-0.7-1.5-1.5S10.1,3,10.9,3s1.5,0.7,1.5,1.5c0,0.2-0.1,0.4-0.1,0.6l1,1
		C13.4,6.3,13.4,6.6,13.2,6.8z M11.4,4.5c0-0.3-0.2-0.5-0.5-0.5c-0.3,0-0.5,0.2-0.5,0.5c0,0.3,0.2,0.5,0.5,0.5
		C11.2,5,11.4,4.8,11.4,4.5z"/>
	<path id="orange_00000005988347508771855840000017392882621966839470_" class="st3" d="M11.5,8h-8V7h8V8z M10.5,10h-7V9h7V10z
		 M9.5,12h-6v-1h6V12z"/>
</g>
</svg>
