<svg xmlns="http://www.w3.org/2000/svg" viewBox="0 0 16 16">
    <rect fill="#FFFFFF" width="16" height="16"/>
    <path fill="#7D83DE" d="M0,0v16h16V0H0z M15,15H1V1h14V15z"/>
    <path fill="#7D83DE" d="M6.5,4.5H4C3.7,4.5,3.5,4.3,3.5,4v0c0-0.3,0.2-0.5,0.5-0.5h2.5C6.8,3.5,7,3.7,7,4v0C7,4.3,6.8,4.5,6.5,4.5z"/>
    <path fill="#E84F35" d="M6.5,6.5H4C3.7,6.5,3.5,6.3,3.5,6v0c0-0.3,0.2-0.5,0.5-0.5h2.5C6.8,5.5,7,5.7,7,6v0C7,6.3,6.8,6.5,6.5,6.5z"/>
    <path fill="#7D83DE" d="M5.5,8.5H4C3.7,8.5,3.5,8.3,3.5,8v0c0-0.3,0.2-0.5,0.5-0.5h1.5C5.8,7.5,6,7.7,6,8v0C6,8.3,5.8,8.5,5.5,8.5z"/>
    <path fill="#E84F35" d="M9,8.5H7.5C7.2,8.5,7,8.3,7,8v0c0-0.3,0.2-0.5,0.5-0.5H9c0.3,0,0.5,0.2,0.5,0.5v0C9.5,8.3,9.3,8.5,9,8.5z"/>
    <path fill="#7D83DE" d="M12.5,8.5H11c-0.3,0-0.5-0.2-0.5-0.5v0c0-0.3,0.2-0.5,0.5-0.5h1.5C12.8,7.5,13,7.7,13,8v0C13,8.3,12.8,8.5,12.5,8.5z"/>
    <path fill="#7D83DE" d="M11,6.5H8.5C8.2,6.5,8,6.3,8,6v0c0-0.3,0.2-0.5,0.5-0.5H11c0.3,0,0.5,0.2,0.5,0.5v0C11.5,6.3,11.3,6.5,11,6.5z"/>
    <path fill="#E84F35" d="M5.5,12.5H4c-0.3,0-0.5-0.2-0.5-0.5v0c0-0.3,0.2-0.5,0.5-0.5h1.5C5.8,11.5,6,11.7,6,12v0C6,12.3,5.8,12.5,5.5,12.5z"/>
    <path fill="#7D83DE" d="M10,12.5H7.5C7.2,12.5,7,12.3,7,12v0c0-0.3,0.2-0.5,0.5-0.5H10c0.3,0,0.5,0.2,0.5,0.5v0C10.5,12.3,10.3,12.5,10,12.5z"/>
    <path fill="#E84F35" d="M10,4.5H8.5C8.2,4.5,8,4.3,8,4v0c0-0.3,0.2-0.5,0.5-0.5H10c0.3,0,0.5,0.2,0.5,0.5v0C10.5,4.3,10.3,4.5,10,4.5z"/>
    <path fill="#E84F35" d="M7.5,10.5H4c-0.3,0-0.5-0.2-0.5-0.5v0c0-0.3,0.2-0.5,0.5-0.5h3.5C7.8,9.5,8,9.7,8,10v0C8,10.3,7.8,10.5,7.5,10.5z"/>
    <path fill="#7D83DE" d="M11,10.5H9.5C9.2,10.5,9,10.3,9,10v0c0-0.3,0.2-0.5,0.5-0.5H11c0.3,0,0.5,0.2,0.5,0.5v0C11.5,10.3,11.3,10.5,11,10.5z"/>
</svg>