<svg xmlns="http://www.w3.org/2000/svg" viewBox="0 0 16 16">
	<rect fill="#FFFFFF" width="16" height="16"/>
	<path fill="#7D83DE" d="M0,0v16h16V0H0z M15,15H1V1h14V15z M7.5,9h-3c-0.6,0-1-0.4-1-1v0c0-0.6,0.4-1,1-1h3c0.6,0,1,0.4,1,1v0C8.5,8.6,8.1,9,7.5,9z"/>
	<path fill="#E84F35" d="M13.2,9.8c-0.2,0.2-0.5,0.2-0.7,0l-1-1C11.3,9,11.1,9,10.9,9c-0.8,0-1.5-0.7-1.5-1.5S10.1,6,10.9,6s1.5,0.7,1.5,1.5c0,0.2-0.1,0.4-0.1,0.6l1,1C13.4,9.3,13.4,9.7,13.2,9.8z M11.4,7.5c0-0.3-0.2-0.5-0.5-0.5c-0.3,0-0.5,0.2-0.5,0.5c0,0.3,0.2,0.5,0.5,0.5C11.2,8,11.4,7.8,11.4,7.5z"/>
</svg>